<svg xmlns="http://www.w3.org/2000/svg" xmlns:xlink="http://www.w3.org/1999/xlink" width="1080" zoomAndPan="magnify" viewBox="0 0 810 809.999993" height="1080" preserveAspectRatio="xMidYMid meet" version="1.0"><defs><clipPath id="54d9bc2f1a"><path d="M 224.890625 240.609375 L 584.890625 240.609375 L 584.890625 569.109375 L 224.890625 569.109375 Z M 224.890625 240.609375 " clip-rule="nonzero"/></clipPath><clipPath id="d81bb9daaf"><path d="M 398 406 L 496 406 L 496 515 L 398 515 Z M 398 406 " clip-rule="nonzero"/></clipPath><clipPath id="52e7923266"><path d="M 350.753906 345.347656 L 506.253906 365.117188 L 486.484375 520.617188 L 330.984375 500.84375 Z M 350.753906 345.347656 " clip-rule="nonzero"/></clipPath><clipPath id="85469e7fe0"><path d="M 350.753906 345.347656 L 506.253906 365.117188 L 486.484375 520.617188 L 330.984375 500.84375 Z M 350.753906 345.347656 " clip-rule="nonzero"/></clipPath><clipPath id="e202459305"><path d="M 362 361 L 381 361 L 381 383 L 362 383 Z M 362 361 " clip-rule="nonzero"/></clipPath><clipPath id="53a0612736"><path d="M 350.753906 345.347656 L 506.253906 365.117188 L 486.484375 520.617188 L 330.984375 500.84375 Z M 350.753906 345.347656 " clip-rule="nonzero"/></clipPath><clipPath id="9142b78ee4"><path d="M 350.753906 345.347656 L 506.253906 365.117188 L 486.484375 520.617188 L 330.984375 500.84375 Z M 350.753906 345.347656 " clip-rule="nonzero"/></clipPath><clipPath id="92b4f41881"><path d="M 415 369 L 438 369 L 438 389 L 415 389 Z M 415 369 " clip-rule="nonzero"/></clipPath><clipPath id="72c5e9a2bb"><path d="M 350.753906 345.347656 L 506.253906 365.117188 L 486.484375 520.617188 L 330.984375 500.84375 Z M 350.753906 345.347656 " clip-rule="nonzero"/></clipPath><clipPath id="17254e99c8"><path d="M 350.753906 345.347656 L 506.253906 365.117188 L 486.484375 520.617188 L 330.984375 500.84375 Z M 350.753906 345.347656 " clip-rule="nonzero"/></clipPath><clipPath id="f291e1f4d1"><path d="M 353 418 L 376 418 L 376 437 L 353 437 Z M 353 418 " clip-rule="nonzero"/></clipPath><clipPath id="a38bb255b2"><path d="M 350.753906 345.347656 L 506.253906 365.117188 L 486.484375 520.617188 L 330.984375 500.84375 Z M 350.753906 345.347656 " clip-rule="nonzero"/></clipPath><clipPath id="c06c7f39e2"><path d="M 350.753906 345.347656 L 506.253906 365.117188 L 486.484375 520.617188 L 330.984375 500.84375 Z M 350.753906 345.347656 " clip-rule="nonzero"/></clipPath><clipPath id="f619ab0297"><path d="M 344 393 L 369 393 L 369 404 L 344 404 Z M 344 393 " clip-rule="nonzero"/></clipPath><clipPath id="cb8b6d854f"><path d="M 350.753906 345.347656 L 506.253906 365.117188 L 486.484375 520.617188 L 330.984375 500.84375 Z M 350.753906 345.347656 " clip-rule="nonzero"/></clipPath><clipPath id="392317090a"><path d="M 350.753906 345.347656 L 506.253906 365.117188 L 486.484375 520.617188 L 330.984375 500.84375 Z M 350.753906 345.347656 " clip-rule="nonzero"/></clipPath><clipPath id="d34ecd4ef8"><path d="M 395 351 L 406 351 L 406 377 L 395 377 Z M 395 351 " clip-rule="nonzero"/></clipPath><clipPath id="afb31b51bc"><path d="M 350.753906 345.347656 L 506.253906 365.117188 L 486.484375 520.617188 L 330.984375 500.84375 Z M 350.753906 345.347656 " clip-rule="nonzero"/></clipPath><clipPath id="b08d2f3fe0"><path d="M 350.753906 345.347656 L 506.253906 365.117188 L 486.484375 520.617188 L 330.984375 500.84375 Z M 350.753906 345.347656 " clip-rule="nonzero"/></clipPath></defs><g clip-path="url(#54d9bc2f1a)"><path fill="#818cf8" d="M 452.714844 240.609375 C 443.511719 251.566406 366.5625 251.566406 357.359375 240.609375 C 355.425781 240.609375 224.894531 309.382812 224.894531 309.382812 L 255.292969 380.628906 L 299.300781 374.902344 L 299.300781 569.253906 L 510.773438 569.253906 L 510.773438 374.902344 L 554.777344 380.628906 L 585.179688 309.382812 C 585.148438 309.371094 454.628906 240.601562 452.695312 240.601562 Z M 359.648438 257.40625 C 387.394531 269.472656 428.410156 269.085938 450.425781 257.40625 C 437.222656 290.171875 383.179688 295.535156 359.648438 257.40625 Z M 359.648438 257.40625 " fill-opacity="1" fill-rule="evenodd"/></g><g clip-path="url(#d81bb9daaf)"><g clip-path="url(#52e7923266)"><g clip-path="url(#85469e7fe0)"><path fill="#ffffff" d="M 461.839844 471.839844 C 461.085938 470.867188 460.808594 469.597656 461.089844 468.378906 C 461.371094 467.160156 462.167969 466.15625 463.285156 465.585938 L 495.179688 449.828125 L 398.390625 406.835938 L 415.789062 511.324219 L 439.03125 484.367188 C 439.84375 483.425781 441.035156 482.90625 442.285156 482.941406 C 443.515625 482.972656 444.695312 483.5625 445.445312 484.554688 L 467.351562 512.820312 C 468.753906 514.628906 471.367188 514.960938 473.175781 513.558594 L 483.003906 505.949219 C 483.886719 505.265625 484.449219 504.292969 484.585938 503.203125 C 484.726562 502.089844 484.425781 501.007812 483.746094 500.125 Z M 461.839844 471.839844 " fill-opacity="1" fill-rule="nonzero"/></g></g></g><g clip-path="url(#e202459305)"><g clip-path="url(#53a0612736)"><g clip-path="url(#9142b78ee4)"><path fill="#ffffff" d="M 369.628906 362.941406 C 368.230469 361.132812 365.617188 360.800781 363.808594 362.203125 C 362 363.601562 361.667969 366.214844 363.066406 368.023438 L 373.230469 381.148438 C 373.929688 382.050781 374.925781 382.59375 375.976562 382.730469 C 377.023438 382.863281 378.125 382.585938 379.03125 381.882812 C 380.839844 380.484375 381.171875 377.871094 379.769531 376.0625 Z M 369.628906 362.941406 " fill-opacity="1" fill-rule="nonzero"/></g></g></g><g clip-path="url(#92b4f41881)"><g clip-path="url(#72c5e9a2bb)"><g clip-path="url(#17254e99c8)"><path fill="#ffffff" d="M 419.628906 388.257812 C 420.675781 388.390625 421.777344 388.113281 422.683594 387.414062 L 435.804688 377.25 C 437.613281 375.851562 437.945312 373.238281 436.542969 371.429688 C 435.144531 369.621094 432.53125 369.289062 430.722656 370.691406 L 417.601562 380.851562 C 415.792969 382.253906 415.460938 384.863281 416.859375 386.671875 C 417.578125 387.601562 418.578125 388.125 419.628906 388.257812 Z M 419.628906 388.257812 " fill-opacity="1" fill-rule="nonzero"/></g></g></g><g clip-path="url(#f291e1f4d1)"><g clip-path="url(#a38bb255b2)"><g clip-path="url(#c06c7f39e2)"><path fill="#ffffff" d="M 368.421875 418.953125 L 355.300781 429.117188 C 353.492188 430.515625 353.160156 433.128906 354.558594 434.9375 C 355.261719 435.839844 356.257812 436.386719 357.304688 436.519531 C 358.355469 436.652344 359.457031 436.375 360.359375 435.675781 L 373.484375 425.511719 C 375.292969 424.113281 375.625 421.5 374.222656 419.691406 C 372.84375 417.886719 370.230469 417.554688 368.421875 418.953125 Z M 368.421875 418.953125 " fill-opacity="1" fill-rule="nonzero"/></g></g></g><g clip-path="url(#f619ab0297)"><g clip-path="url(#cb8b6d854f)"><g clip-path="url(#392317090a)"><path fill="#ffffff" d="M 368.8125 399.792969 C 369.097656 397.53125 367.480469 395.445312 365.21875 395.15625 L 348.765625 393.066406 C 346.5 392.777344 344.414062 394.394531 344.128906 396.65625 C 343.839844 398.917969 345.457031 401.003906 347.71875 401.292969 L 364.171875 403.382812 C 366.457031 403.675781 368.523438 402.054688 368.8125 399.792969 Z M 368.8125 399.792969 " fill-opacity="1" fill-rule="nonzero"/></g></g></g><g clip-path="url(#d34ecd4ef8)"><g clip-path="url(#afb31b51bc)"><g clip-path="url(#b08d2f3fe0)"><path fill="#ffffff" d="M 405.679688 356.40625 C 405.96875 354.144531 404.351562 352.058594 402.089844 351.769531 C 399.828125 351.480469 397.738281 353.097656 397.453125 355.359375 L 395.359375 371.816406 C 395.074219 374.078125 396.6875 376.164062 398.949219 376.453125 C 401.214844 376.742188 403.300781 375.125 403.589844 372.863281 Z M 405.679688 356.40625 " fill-opacity="1" fill-rule="nonzero"/></g></g></g></svg>